# xmcd CD database file
#
# Track frame offsets:
#	150
#	5739
#	19109
#	40703
#	65233
#	78074
#	89623
#	99298
#	110401
#	130988
#	142241
#	155308
#	177052
#	195957
#	206823
#	225937
#
# Disc length: 3128 seconds
#
# Revision: 0
# Processed by: cddbd v1.5.2PL0 Copyright (c) Steve Scherf et al.
# Submitted via: CDex 1.70beta2
#
DISCID=cb0c3610
DTITLE=St. Daniels Chor - Vision Ökumene
DYEAR=2008
DGENRE=Geistliche Chormusik acapella
TTITLE0=Christus ist auferstanden
TTITLE1=Ich bete an die Macht der Liebe
TTITLE2=Abendliches Opfer - Laß mein Gebet vor Dein Antlitz kommen
TTITLE3=Nun dienen unsichtbar die himmlischen Mächte mit uns
TTITLE4=Nunc Dimittis  Simeons Lobgesang
TTITLE5=O Gottesgebärerin, Jungfrau, gegrüßt seist Du Maria
TTITLE6=Vater unser
TTITLE7=Uscham Burjat
TTITLE8=Das Rote Herz
TTITLE9=Caravan
TTITLE10=Tum - Balalaike
TTITLE11=Die Abendglöcklein
TTITLE12=Liebling, mein Herz läßt Dich grüßen
TTITLE13=Mein kleiner grüner Kaktus
TTITLE14=Wiegenlied
TTITLE15=Auf viele Jahre
EXTD=YEAR: 2008
EXTT0=
EXTT1=
EXTT2=
EXTT3=
EXTT4=
EXTT5=
EXTT6=
EXTT7=
EXTT8=
EXTT9=
EXTT10=
EXTT11=
EXTT12=
EXTT13=
EXTT14=
EXTT15=
PLAYORDER=
